<?xml version="1.0" encoding="UTF-8"?>
<svg width="341px" height="200px" viewBox="0 0 341 200" version="1.1" xmlns="http://www.w3.org/2000/svg" xmlns:xlink="http://www.w3.org/1999/xlink">
    <title>Group</title>
    <g id="Page-1" stroke="none" stroke-width="1" fill="none" fill-rule="evenodd">
        <g id="Group">
            <path d="M335,22.7377807 L310.128205,0.0165125495 L306.629573,3.81439894 L327.356068,22.7377807 L245.660513,22.7377807 L266.387009,3.79788639 L262.888376,0 L238.016581,22.7377807 L238,22.7377807 L238,37.7146631 C238,44.4848085 244.549573,50 252.591453,50 L267.92906,50 C275.97094,50 282.520513,44.4848085 282.520513,37.7146631 L282.520513,27.8731836 L290.479487,27.8731836 L290.479487,37.7146631 C290.479487,44.4848085 297.02906,50 305.07094,50 L320.408547,50 C328.450427,50 335,44.4848085 335,37.7146631 L335,22.7377807 Z" id="Path" fill="#4B3466" fill-rule="nonzero"></path>
            <text id="Awesome" font-family="Roboto-Medium, Roboto" font-size="48" font-weight="400" fill="#4C566A">
                <tspan x="8" y="50">Awesome</tspan>
            </text>
            <text id="Notes" font-family="Roboto-Bold, Roboto" font-size="128" font-weight="bold" fill="#4C566A">
                <tspan x="0" y="169">Notes</tspan>
            </text>
        </g>
    </g>
</svg>